<?xml version='1.0' encoding='UTF-8'?>
<!-- Generator: visioncortex VTracer 0.6.4 --><svg xmlns="http://www.w3.org/2000/svg" version="1.2" baseProfile="tiny" viewBox="0 0 1436 1436" width="1436" height="1436">
<path d="M0 0 C11.655 10.979 19.746 25.575 20.574 41.754 C20.899 60.136 16.971 75.721 4.434 89.598 C3.682 90.367 2.931 91.137 2.156 91.93 C0.305 93.67 0.305 93.67 -0.629 95.785 C0.062 96.038 0.753 96.29 1.465 96.551 C4.773 97.956 7.801 99.694 10.875 101.539 C11.502 101.911 12.128 102.284 12.774 102.668 C14.829 103.891 16.882 105.119 18.934 106.348 C20.379 107.21 21.825 108.072 23.271 108.934 C33.475 115.022 43.635 121.18 53.781 127.363 C62.67 132.775 71.606 138.105 80.559 143.41 C81.92 144.217 83.281 145.024 84.643 145.831 C85.309 146.226 85.976 146.621 86.662 147.028 C87.323 147.42 87.983 147.811 88.664 148.215 C89.319 148.603 89.974 148.992 90.649 149.392 C96.897 153.095 103.138 156.808 109.371 160.535 C110.363 161.126 111.355 161.717 112.376 162.326 C117.679 165.504 122.919 168.76 128.109 172.117 C129.762 173.178 129.762 173.178 131.447 174.261 C133.561 175.624 135.665 177 137.76 178.392 C139.17 179.3 139.17 179.3 140.609 180.227 C141.435 180.77 142.26 181.313 143.111 181.873 C145.342 183.061 145.342 183.061 147.543 182.035 C149.608 180.623 151.621 179.164 153.621 177.66 C177.407 161.017 203.144 157.931 231.371 162.785 C231.938 161.932 232.505 161.079 233.089 160.2 C242.865 145.495 252.647 130.794 262.551 116.175 C263.335 115.017 264.119 113.859 264.902 112.7 C282.687 86.393 282.687 86.393 286.621 84.973 C287.199 84.911 287.776 84.849 288.371 84.785 C288.622 89.287 288.094 92.059 285.984 96.031 C285.205 97.517 285.205 97.517 284.409 99.033 C283.555 100.612 283.555 100.612 282.684 102.223 C282.099 103.324 281.515 104.426 280.913 105.561 C276.432 113.957 271.775 122.25 267.054 130.512 C262.308 138.829 257.846 147.277 253.427 155.77 C251.136 160.141 248.759 164.466 246.371 168.785 C247.246 169.055 248.122 169.324 249.023 169.602 C269.081 176.693 281.87 192.869 292.122 210.609 C295.328 216.019 298.672 219.935 304.371 222.785 C312.861 223.528 321.397 222.069 329.801 220.981 C331.338 220.787 332.875 220.593 334.412 220.4 C337.706 219.984 341 219.565 344.294 219.142 C349.52 218.472 354.748 217.81 359.976 217.15 C368.262 216.101 376.548 215.047 384.833 213.991 C399.626 212.104 414.42 210.228 429.214 208.354 C434.391 207.698 439.568 207.039 444.745 206.379 C473.599 202.697 473.599 202.697 484.658 201.476 C485.362 201.395 486.065 201.314 486.79 201.23 C493.065 200.571 499.124 200.955 505.371 201.785 C505.184 204.098 505.184 204.098 504.371 206.785 C500.377 209.807 496.062 210.763 491.247 211.744 C490.457 211.912 489.666 212.081 488.851 212.254 C480.893 213.928 472.906 215.46 464.913 216.958 C461.301 217.635 457.691 218.319 454.081 219.002 C452.152 219.367 450.223 219.732 448.293 220.096 C431.904 223.193 415.525 226.349 399.148 229.511 C393.832 230.537 388.515 231.56 383.197 232.579 C353.387 238.264 353.387 238.264 323.73 244.688 C322.535 244.96 321.339 245.232 320.107 245.513 C311.141 247.28 311.141 247.28 304.047 252.52 C303.106 255.675 302.856 258.757 302.559 262.035 C300.623 279.654 293.903 295.22 282.371 308.785 C283.668 311.622 285.059 313.744 287.207 316 C288.052 316.895 288.052 316.895 288.915 317.809 C289.519 318.441 290.123 319.072 290.746 319.723 C292.022 321.073 293.299 322.423 294.574 323.773 C295.214 324.448 295.854 325.123 296.514 325.819 C299.198 328.661 301.849 331.533 304.496 334.41 C304.981 334.936 305.466 335.461 305.966 336.003 C308.461 338.707 310.95 341.417 313.434 344.133 C318.878 350.076 324.415 355.87 330.152 361.535 C332.088 363.498 333.899 365.498 335.684 367.598 C339.416 371.968 343.509 375.95 347.593 379.987 C351.226 383.595 354.686 387.292 358.004 391.195 C359.695 393.162 361.501 394.99 363.371 396.785 C366.974 395.449 370.302 393.782 373.686 391.967 C392.708 381.904 413.599 379.424 434.555 384.566 C446.765 388.328 457.924 394.165 467.371 402.785 C467.853 403.22 468.335 403.654 468.832 404.102 C483.613 417.569 494.36 435.845 495.504 456.142 C495.932 465.838 495.993 475.134 493.371 484.535 C490.409 493.133 490.409 493.133 491.371 501.785 C494.595 504.739 498.264 506.633 502.125 508.611 C505.517 510.384 508.82 512.308 512.139 514.213 C516.135 516.499 520.154 518.746 524.172 520.994 C527.398 522.8 530.619 524.615 533.84 526.43 C545.624 533.047 557.481 539.475 569.496 545.66 C570.109 545.976 570.722 546.291 571.353 546.616 C576.298 549.161 581.247 551.698 586.198 554.232 C588.572 555.451 590.941 556.679 593.309 557.91 C593.958 558.24 594.607 558.57 595.276 558.91 C599.493 561.113 602.906 563.558 606.371 566.785 C607.246 569.598 607.246 569.598 607.371 571.785 C603.563 573.689 599.418 572.612 595.371 571.785 C591.159 570.327 587.099 568.575 583.033 566.757 C579.414 565.141 575.774 563.575 572.137 562 C571.358 561.661 570.579 561.322 569.776 560.973 C559.242 556.402 548.596 552.103 537.959 547.777 C535.163 546.639 532.366 545.501 529.57 544.363 C528.647 543.988 527.724 543.612 526.773 543.225 C520.212 540.55 513.673 537.825 507.141 535.082 C504.468 533.965 501.795 532.85 499.122 531.734 C497.429 531.025 495.739 530.311 494.05 529.593 C491.717 528.602 489.379 527.626 487.039 526.652 C486.362 526.36 485.685 526.067 484.987 525.765 C479.671 523.581 475.015 522.786 469.559 524.848 C466.843 526.498 464.321 528.242 461.746 530.098 C450.242 538.254 435.692 545.431 421.371 545.785 C419.89 545.861 419.89 545.861 418.379 545.938 C401.043 546.438 382.308 543.475 367.559 533.848 C366.507 533.167 365.455 532.486 364.371 531.785 C360.406 533.107 359.473 534.995 356.996 538.348 C356.104 539.539 355.209 540.729 354.312 541.918 C353.599 542.864 353.599 542.864 352.872 543.829 C350.297 547.185 347.614 550.451 344.934 553.723 C340.812 558.762 336.744 563.835 332.746 568.973 C328.711 574.15 324.54 579.19 320.278 584.181 C316.985 588.043 313.797 591.973 310.645 595.949 C307.692 599.632 304.688 603.27 301.684 606.91 C288.199 623.266 275.075 639.813 262.371 656.785 C262.781 657.409 263.19 658.033 263.612 658.677 C272.733 672.758 276.025 687.765 273.871 704.348 C272.984 711.314 272.588 718.413 274.184 725.285 C280.211 732.174 292.109 734.613 300.531 737.559 C301.791 738.003 303.05 738.448 304.309 738.894 C307.656 740.077 311.006 741.254 314.355 742.43 C317.862 743.662 321.367 744.899 324.872 746.137 C326.284 746.635 327.695 747.133 329.107 747.631 C329.804 747.877 330.501 748.123 331.219 748.377 C333.326 749.12 335.433 749.863 337.54 750.605 C345.476 753.403 353.404 756.221 361.32 759.074 C362.645 759.551 362.645 759.551 363.995 760.038 C364.854 760.348 365.712 760.657 366.597 760.976 C382.763 766.801 398.993 772.384 415.308 777.778 C428.16 782.026 440.973 786.37 453.746 790.848 C454.509 791.114 455.272 791.38 456.059 791.654 C481.023 800.37 481.023 800.37 487.371 805.785 C486.711 807.105 486.051 808.425 485.371 809.785 C478.179 810.132 472.074 809.262 465.176 807.277 C463.694 806.868 463.694 806.868 462.182 806.451 C458.867 805.532 455.557 804.596 452.246 803.66 C449.852 802.993 447.458 802.328 445.063 801.664 C441.153 800.579 437.244 799.493 433.336 798.4 C422.503 795.371 411.658 792.387 400.809 789.418 C397.402 788.485 393.996 787.552 390.59 786.619 C389.739 786.386 388.888 786.153 388.011 785.913 C345.079 774.152 345.079 774.152 324.246 768.219 C323.028 767.872 321.809 767.525 320.553 767.168 C315.06 765.602 309.569 764.028 304.082 762.439 C279.862 754.786 279.862 754.786 254.871 751.66 C254.16 751.658 253.448 751.655 252.715 751.652 C249.887 751.813 247.161 752.304 244.371 752.785 C253.112 773.986 262.058 795.094 271.121 816.16 C279.592 835.851 287.921 855.592 296.044 875.429 C301.031 887.601 306.153 899.71 311.371 911.785 C311.971 911.716 312.57 911.647 313.188 911.575 C314.383 911.439 314.383 911.439 315.602 911.301 C316.387 911.211 317.172 911.121 317.981 911.028 C330.155 909.79 341.55 912.2 351.371 919.785 C360.243 927.924 365.448 937.739 366.371 949.785 C366.506 962.774 362.216 972.612 353.336 981.918 C344.428 990.433 334.61 993.144 322.492 992.996 C311.84 992.276 302.38 987.276 295.059 979.598 C286.664 969.572 284.461 958.565 285.153 945.863 C286.233 935.567 292.259 925.76 300.219 919.281 C301.871 918.16 301.871 918.16 304.371 916.785 C300.228 909.144 296.008 901.549 291.746 893.973 C283.612 879.473 275.626 864.899 267.804 850.228 C260.721 836.947 253.477 823.774 246.024 810.696 C241.309 802.393 236.666 794.049 232.009 785.712 C230.434 782.897 228.851 780.087 227.266 777.277 C226.342 775.634 225.419 773.991 224.496 772.348 C224.073 771.602 223.65 770.857 223.214 770.089 C220.371 765.012 220.371 765.012 220.371 762.785 C219.742 762.801 219.114 762.817 218.466 762.833 C197.528 763.287 181.537 762.113 165.649 747.014 C164.214 745.614 162.792 744.2 161.371 742.785 C160.627 742.076 159.884 741.367 159.117 740.637 C148.054 729.335 142.447 713.439 141.996 697.848 C142.48 678.872 149.836 661.982 162.559 648.035 C176.007 635.494 192.852 629.152 211.172 629.535 C221.025 630.305 230.026 632.65 238.98 636.797 C241.402 637.976 241.402 637.976 244.371 637.785 C246.39 636.042 248.233 634.291 250.093 632.388 C250.665 631.814 251.238 631.24 251.828 630.649 C253.729 628.742 255.618 626.824 257.508 624.906 C258.829 623.577 260.151 622.249 261.473 620.921 C264.963 617.413 268.445 613.898 271.924 610.379 C277.474 604.771 283.035 599.175 288.598 593.58 C290.533 591.632 292.463 589.679 294.394 587.726 C305.043 576.976 305.043 576.976 310.755 572.169 C313.803 569.559 316.608 566.695 319.434 563.848 C320.044 563.236 320.655 562.624 321.284 561.993 C324.912 558.335 328.344 554.578 331.668 550.641 C334.532 547.521 337.767 544.816 340.945 542.023 C343.823 539.368 346.314 536.5 348.84 533.516 C350.813 531.285 352.917 529.468 355.371 527.785 C356.031 527.785 356.691 527.785 357.371 527.785 C356.947 527.3 356.523 526.816 356.086 526.316 C354.839 524.892 353.598 523.463 352.359 522.031 C351.163 520.679 349.938 519.35 348.664 518.07 C334.889 503.843 328.903 482.716 328.059 463.41 C328.767 440.908 338.837 420.663 354.371 404.785 C350.611 399.729 346.176 396.065 341.266 392.141 C338.551 389.932 335.954 387.646 333.371 385.285 C329.128 381.423 324.748 377.778 320.289 374.168 C317.117 371.578 313.991 368.938 310.871 366.285 C306.902 362.912 302.911 359.573 298.871 356.285 C291.327 350.138 283.912 343.839 276.539 337.488 C275.906 336.943 275.273 336.399 274.62 335.837 C273.396 334.783 272.173 333.727 270.952 332.669 C268.492 330.548 266.078 328.589 263.371 326.785 C262.823 327.209 262.275 327.633 261.711 328.07 C248.101 338.139 231.439 345.059 214.371 345.785 C213.095 345.862 213.095 345.862 211.793 345.941 C186.723 346.763 162.118 337.082 143.656 320.32 C137.687 314.613 133.274 309.105 129.027 302.023 C128.481 301.285 127.934 300.546 127.371 299.785 C124.002 299.785 123.423 300.208 120.809 302.137 C119.752 302.908 119.752 302.908 118.675 303.695 C117.914 304.261 117.154 304.827 116.371 305.41 C115.174 306.289 115.174 306.289 113.952 307.186 C112.265 308.427 110.58 309.67 108.897 310.917 C106.503 312.688 104.101 314.447 101.695 316.203 C92.451 322.963 83.314 329.855 74.219 336.815 C67.599 341.872 60.916 346.838 54.199 351.766 C47.162 356.93 40.177 362.159 33.204 367.407 C30.262 369.619 27.316 371.827 24.371 374.035 C23.402 374.762 22.432 375.489 21.434 376.238 C20.753 376.749 20.072 377.259 19.371 377.785 C19.723 378.2 20.075 378.615 20.438 379.043 C34.033 396.01 38.658 416.445 37.371 437.785 C35.886 449.248 32.306 460.405 26.059 470.16 C23.51 474.23 22.43 476.894 23.371 481.785 C26.219 486.503 29.627 490.595 33.246 494.723 C33.808 495.367 34.369 496.012 34.948 496.676 C39.708 502.105 44.612 507.392 49.56 512.65 C52.385 515.652 55.184 518.659 57.871 521.785 C61.258 525.725 64.818 529.496 68.371 533.285 C72.57 537.764 76.734 542.255 80.742 546.906 C84.223 550.921 87.81 554.842 91.371 558.785 C96.139 564.065 100.886 569.358 105.559 574.723 C107.643 577.095 109.755 579.441 111.871 581.785 C116.659 587.096 121.393 592.446 126.016 597.902 C131.191 603.998 136.439 609.975 141.934 615.785 C146.313 620.439 150.473 625.206 154.434 630.223 C154.875 630.778 155.315 631.333 155.77 631.904 C158.7 635.684 161.239 639.496 163.371 643.785 C163.041 644.775 162.711 645.765 162.371 646.785 C157.893 645.327 154.702 642.86 151.207 639.805 C150.607 639.284 150.006 638.764 149.388 638.228 C140.865 630.721 132.966 622.555 124.996 614.473 C122.607 612.055 120.216 609.64 117.822 607.227 C116.347 605.741 114.876 604.252 113.407 602.759 C109.443 598.757 105.377 594.95 101.097 591.287 C98.736 589.232 96.554 587.027 94.371 584.785 C91.455 581.833 88.525 578.981 85.371 576.285 C81.295 572.801 77.576 569.004 73.809 565.191 C71.721 563.131 69.599 561.19 67.371 559.285 C63.295 555.801 59.576 552.004 55.809 548.191 C53.721 546.131 51.599 544.19 49.371 542.285 C46.217 539.589 43.287 536.737 40.371 533.785 C37.496 530.875 34.612 528.061 31.496 525.41 C28.551 522.897 25.808 520.241 23.096 517.477 C18.735 513.033 14.321 508.685 9.621 504.598 C8.801 503.882 7.981 503.167 7.137 502.43 C3.62 500.339 0.416 499.624 -3.629 499.785 C-7.223 500.828 -7.223 500.828 -10.691 502.535 C-22.302 507.574 -33.816 509.106 -46.372 509.407 C-51.292 509.548 -51.292 509.548 -55.629 511.785 C-56.593 513.906 -56.593 513.906 -57.247 516.437 C-57.522 517.397 -57.798 518.357 -58.082 519.346 C-58.369 520.387 -58.655 521.428 -58.949 522.5 C-59.254 523.58 -59.56 524.66 -59.874 525.773 C-62.631 535.6 -65.215 545.472 -67.741 555.362 C-74.778 582.89 -82.181 610.32 -89.633 637.739 C-91.518 644.675 -93.39 651.615 -95.245 658.56 C-96.26 662.357 -97.283 666.151 -98.307 669.945 C-98.767 671.653 -99.222 673.361 -99.675 675.071 C-100.283 677.369 -100.903 679.663 -101.527 681.957 C-101.864 683.216 -102.201 684.475 -102.548 685.772 C-103.569 688.617 -104.287 689.949 -106.629 691.785 C-107.949 691.125 -109.269 690.465 -110.629 689.785 C-111.081 681.189 -109.678 673.024 -108.156 664.605 C-107.887 663.078 -107.618 661.551 -107.349 660.023 C-106.611 655.833 -105.861 651.645 -105.108 647.457 C-104.454 643.813 -103.806 640.168 -103.157 636.523 C-100.669 622.545 -98.155 608.572 -95.64 594.599 C-92.952 579.664 -90.276 564.727 -87.629 549.785 C-87.455 548.803 -87.281 547.822 -87.101 546.81 C-86.079 541.038 -85.065 535.264 -84.063 529.488 C-83.754 527.714 -83.443 525.942 -83.13 524.169 C-82.7 521.731 -82.278 519.292 -81.859 516.852 C-81.733 516.149 -81.607 515.445 -81.478 514.721 C-80.677 509.983 -80.352 505.569 -80.629 500.785 C-82.712 498.419 -82.712 498.419 -85.629 496.785 C-86.575 496.088 -87.521 495.39 -88.496 494.672 C-89.489 493.946 -90.481 493.22 -91.504 492.473 C-106.714 481.076 -117.519 464.528 -121.629 445.785 C-121.629 444.465 -121.629 443.145 -121.629 441.785 C-122.218 441.796 -122.807 441.806 -123.414 441.817 C-130.02 441.882 -136.506 441.478 -143.083 440.883 C-144.182 440.787 -145.281 440.691 -146.413 440.592 C-150.021 440.277 -153.627 439.955 -157.234 439.633 C-159.762 439.411 -162.291 439.189 -164.819 438.967 C-170.786 438.444 -176.753 437.917 -182.72 437.388 C-194.011 436.387 -205.302 435.394 -216.594 434.402 C-220.28 434.077 -223.966 433.75 -227.652 433.423 C-229.944 433.221 -232.236 433.019 -234.528 432.817 C-236.146 432.673 -236.146 432.673 -237.797 432.527 C-244.723 431.923 -251.641 431.436 -258.588 431.119 C-262.135 430.73 -265.225 429.848 -268.629 428.785 C-268.134 426.805 -268.134 426.805 -267.629 424.785 C-258.65 424.604 -249.671 424.439 -240.691 424.285 C-239.655 424.267 -239.655 424.267 -238.598 424.249 C-212.108 423.799 -185.622 423.698 -159.129 423.723 C-157.758 423.724 -157.758 423.724 -156.36 423.725 C-145.116 423.737 -133.873 423.757 -122.629 423.785 C-122.567 422.965 -122.506 422.145 -122.442 421.299 C-122.358 420.221 -122.273 419.143 -122.186 418.033 C-122.104 416.965 -122.021 415.897 -121.937 414.797 C-120.043 396.255 -107.563 378.539 -94.004 366.598 C-75.689 351.978 -54.784 347.297 -31.629 348.785 C-16.505 350.563 -2.017 357.848 9.371 367.785 C11.366 369.458 13.369 371.121 15.371 372.785 C15.803 372.378 16.236 371.971 16.681 371.551 C24.835 363.875 33.01 356.236 41.371 348.785 C43.08 347.244 44.788 345.702 46.496 344.16 C50.073 340.94 53.68 337.758 57.309 334.598 C59.681 332.513 62.027 330.401 64.371 328.285 C67.988 325.021 71.635 321.797 75.309 318.598 C77.681 316.513 80.027 314.401 82.371 312.285 C85.988 309.021 89.635 305.797 93.309 302.598 C95.681 300.513 98.027 298.401 100.371 296.285 C106.262 290.974 112.156 285.716 118.371 280.785 C117.938 278.968 117.938 278.968 117.496 277.113 C112.137 253.458 112.619 230.019 125.246 208.605 C126.912 205.966 128.611 203.362 130.371 200.785 C122.824 195.081 115.278 189.381 107.559 183.91 C94.117 174.371 80.942 164.487 67.857 154.466 C63.085 150.821 58.284 147.239 53.371 143.785 C46.602 139.027 40.049 133.996 33.481 128.965 C26.689 123.769 19.846 118.653 12.934 113.618 C9.466 111.089 6.032 108.544 2.695 105.844 C2.147 105.407 1.598 104.97 1.033 104.519 C-0.383 103.382 -1.784 102.225 -3.184 101.066 C-5.567 99.473 -5.567 99.473 -8.156 100.414 C-8.972 100.867 -9.788 101.319 -10.629 101.785 C-11.396 102.176 -12.163 102.566 -12.953 102.969 C-14.123 103.589 -14.123 103.589 -15.316 104.223 C-30.168 111.715 -46.051 112.632 -61.898 107.785 C-79.426 101.464 -92.134 90.441 -100.629 73.785 C-106.746 58.872 -108.448 40.928 -102.816 25.598 C-102.425 24.67 -102.033 23.741 -101.629 22.785 C-101.278 21.919 -100.928 21.053 -100.566 20.16 C-94.034 5.644 -81.862 -5.142 -67.289 -11.223 C-43.51 -20.092 -19.689 -16.588 0 0 Z M-83.004 13.348 C-86.022 17.875 -86.245 21.418 -85.629 26.785 C-84.274 30.982 -82.062 33.812 -78.379 36.223 C-74.291 38.253 -71.151 38.288 -66.629 37.785 C-60.954 35.782 -57.322 32.172 -54.629 26.785 C-54.279 21.445 -54.148 18.106 -57.629 13.785 C-61.669 9.963 -65.555 8.179 -71.066 7.473 C-76.004 8.075 -79.621 9.698 -83.004 13.348 Z M155.859 212.219 C152.143 216.489 151 219.943 151.094 225.594 C151.766 230.908 154.193 234.689 158.059 238.285 C163.508 240.753 168.088 240.603 173.684 238.598 C177.199 236.227 179.477 233.572 181.371 229.785 C182.141 222.993 181.473 217.379 177.371 211.785 C171.026 206.321 161.963 206.43 155.859 212.219 Z M-97.629 390.785 C-100.002 394.559 -99.775 397.307 -99.168 401.598 C-98.377 404.805 -97.048 406.568 -94.629 408.785 C-91.615 410.577 -89.776 410.785 -86.254 410.785 C-81.642 409.513 -78.872 407.239 -75.629 403.785 C-74.097 400.721 -74.4 398.169 -74.629 394.785 C-76.029 391.364 -77.247 390.042 -80.316 387.973 C-87.158 385.52 -91.942 385.91 -97.629 390.785 Z M355.559 433.473 C353.828 436.843 353.14 440.033 353.371 443.785 C354.626 447.529 356.645 450.177 359.684 452.723 C363.16 454.097 365.659 454.183 369.371 453.785 C373.467 451.975 376.103 449.649 378.371 445.785 C379.135 441.956 379.241 438.468 377.418 434.941 C374.211 430.801 371.011 429.124 365.934 428.473 C361.759 428.982 358.626 430.616 355.559 433.473 Z M168.059 674.348 C164.795 679.062 164.636 683.142 165.371 688.785 C167.165 693.128 169.689 695.353 173.621 697.848 C179.542 699.328 183.992 698.13 189.246 695.16 C192.652 691.354 194.437 687.621 194.316 682.441 C193.654 678.385 192.682 675.599 189.559 672.848 C181.704 667.765 174.847 666.826 168.059 674.348 Z M295.371 945.785 C293.263 950.091 293.114 952.927 294.496 957.535 C296.863 961.691 296.863 961.691 300.371 964.785 C304.891 965.879 307.215 966.163 311.621 964.723 C315.37 962.082 317.848 959.459 318.754 954.828 C319.045 949.751 317.736 946.711 314.371 942.785 C307.533 938.622 300.547 939.725 295.371 945.785 Z " fill="#0E64B5" transform="translate(417.62890625,162.21484375)"/>
<path d="M0 0 C3.413 0.428 4.969 1.639 7.25 4.141 C7.852 4.792 8.454 5.444 9.075 6.116 C9.71 6.82 10.345 7.524 11 8.25 C11.996 9.334 11.996 9.334 13.013 10.441 C14.371 11.92 15.726 13.402 17.077 14.887 C19.281 17.308 21.503 19.712 23.729 22.113 C27.186 25.844 30.626 29.59 34.059 33.344 C39.505 39.288 45.042 45.084 50.781 50.75 C52.717 52.713 54.528 54.713 56.312 56.812 C60.045 61.183 64.138 65.165 68.222 69.202 C71.855 72.81 75.315 76.506 78.633 80.41 C80.324 82.377 82.13 84.204 84 86 C87.603 84.664 90.931 82.997 94.315 81.182 C113.337 71.119 134.228 68.639 155.184 73.781 C167.393 77.543 178.553 83.38 188 92 C188.723 92.652 188.723 92.652 189.461 93.316 C204.242 106.784 214.989 125.06 216.133 145.356 C216.561 155.053 216.622 164.349 214 173.75 C211.037 182.348 211.037 182.348 212 191 C215.224 193.954 218.893 195.848 222.753 197.826 C226.146 199.599 229.449 201.523 232.768 203.428 C236.764 205.714 240.783 207.961 244.801 210.208 C248.027 212.015 251.248 213.83 254.469 215.645 C266.253 222.261 278.11 228.689 290.125 234.875 C290.738 235.191 291.351 235.506 291.982 235.831 C296.927 238.376 301.876 240.913 306.827 243.447 C309.201 244.666 311.57 245.894 313.938 247.125 C314.587 247.455 315.236 247.785 315.905 248.125 C320.122 250.328 323.535 252.773 327 256 C327.875 258.812 327.875 258.812 328 261 C324.192 262.904 320.047 261.827 316 261 C311.788 259.541 307.728 257.789 303.662 255.972 C300.043 254.356 296.402 252.79 292.766 251.215 C291.597 250.706 291.597 250.706 290.405 250.188 C279.871 245.617 269.225 241.318 258.588 236.992 C255.792 235.854 252.995 234.716 250.199 233.578 C249.276 233.202 248.353 232.827 247.401 232.44 C240.841 229.765 234.302 227.04 227.77 224.297 C225.097 223.18 222.424 222.064 219.751 220.949 C218.058 220.24 216.368 219.526 214.679 218.808 C212.346 217.817 210.008 216.84 207.668 215.867 C206.991 215.574 206.314 215.282 205.616 214.98 C200.3 212.796 195.644 212.001 190.188 214.062 C187.472 215.713 184.95 217.457 182.375 219.312 C170.871 227.469 156.321 234.646 142 235 C141.013 235.05 140.025 235.101 139.008 235.152 C121.672 235.653 102.937 232.69 88.188 223.062 C87.136 222.382 86.084 221.701 85 221 C81.035 222.322 80.102 224.209 77.625 227.562 C76.733 228.754 75.838 229.944 74.941 231.133 C74.466 231.763 73.99 232.394 73.5 233.044 C70.926 236.4 68.243 239.666 65.562 242.938 C61.441 247.977 57.373 253.05 53.375 258.188 C49.34 263.365 45.169 268.404 40.907 273.396 C37.613 277.258 34.426 281.188 31.273 285.164 C28.321 288.847 25.317 292.485 22.312 296.125 C8.828 312.481 -4.297 329.028 -17 346 C-16.386 346.936 -16.386 346.936 -15.759 347.891 C-6.638 361.973 -3.346 376.98 -5.5 393.562 C-6.387 400.529 -6.783 407.628 -5.188 414.5 C0.84 421.388 12.738 423.828 21.16 426.773 C22.42 427.218 23.679 427.663 24.938 428.109 C28.285 429.292 31.634 430.469 34.984 431.645 C38.491 432.877 41.996 434.114 45.501 435.352 C46.913 435.85 48.324 436.348 49.736 436.846 C50.433 437.092 51.13 437.338 51.848 437.592 C53.955 438.335 56.062 439.078 58.169 439.82 C66.105 442.618 74.033 445.435 81.949 448.289 C82.832 448.607 83.715 448.925 84.624 449.253 C85.483 449.562 86.341 449.872 87.226 450.19 C103.392 456.016 119.622 461.599 135.937 466.993 C148.789 471.241 161.601 475.585 174.375 480.062 C175.52 480.462 175.52 480.462 176.687 480.869 C201.651 489.585 201.651 489.585 208 495 C207.34 496.32 206.68 497.64 206 499 C198.807 499.347 192.703 498.477 185.805 496.492 C184.817 496.219 183.829 495.947 182.811 495.666 C179.495 494.747 176.185 493.811 172.875 492.875 C170.481 492.208 168.087 491.543 165.692 490.879 C161.782 489.794 157.873 488.707 153.965 487.615 C143.132 484.586 132.287 481.602 121.438 478.633 C118.031 477.7 114.625 476.767 111.219 475.834 C110.368 475.601 109.517 475.368 108.64 475.128 C65.708 463.367 65.708 463.367 44.875 457.434 C43.656 457.087 42.438 456.74 41.182 456.382 C35.689 454.817 30.198 453.242 24.71 451.654 C0.491 444.001 0.491 444.001 -24.5 440.875 C-25.212 440.872 -25.923 440.87 -26.656 440.867 C-29.484 441.027 -32.21 441.519 -35 442 C-26.259 463.201 -17.313 484.309 -8.25 505.375 C0.221 525.066 8.55 544.807 16.673 564.644 C21.66 576.816 26.782 588.925 32 601 C32.6 600.931 33.199 600.861 33.817 600.79 C34.614 600.699 35.41 600.609 36.23 600.516 C37.016 600.426 37.801 600.336 38.61 600.243 C50.783 599.005 62.178 601.414 72 609 C80.872 617.139 86.077 626.953 87 639 C87.135 651.989 82.845 661.827 73.965 671.133 C65.057 679.648 55.239 682.359 43.121 682.211 C32.469 681.491 23.009 676.491 15.688 668.812 C7.293 658.787 5.09 647.78 5.782 635.078 C6.861 624.781 12.888 614.975 20.848 608.496 C22.5 607.375 22.5 607.375 25 606 C20.857 598.359 16.636 590.764 12.375 583.188 C4.241 568.688 -3.745 554.114 -11.568 539.443 C-18.65 526.162 -25.894 512.989 -33.347 499.911 C-38.062 491.608 -42.705 483.263 -47.362 474.927 C-48.937 472.112 -50.52 469.302 -52.105 466.492 C-53.029 464.849 -53.952 463.206 -54.875 461.562 C-55.298 460.817 -55.721 460.072 -56.157 459.303 C-59 454.226 -59 454.226 -59 452 C-59.629 452.016 -60.257 452.031 -60.905 452.048 C-81.843 452.501 -97.834 451.328 -113.722 436.229 C-115.158 434.829 -116.579 433.415 -118 432 C-118.744 431.291 -119.488 430.582 -120.254 429.852 C-131.318 418.55 -136.924 402.654 -137.375 387.062 C-136.891 368.086 -129.535 351.197 -116.812 337.25 C-103.364 324.709 -86.519 318.367 -68.199 318.75 C-58.346 319.52 -49.345 321.865 -40.391 326.012 C-37.969 327.191 -37.969 327.191 -35 327 C-32.981 325.257 -31.138 323.506 -29.279 321.603 C-28.419 320.742 -28.419 320.742 -27.543 319.864 C-25.643 317.957 -23.753 316.039 -21.863 314.121 C-20.542 312.792 -19.22 311.463 -17.898 310.136 C-14.408 306.628 -10.926 303.112 -7.447 299.594 C-1.897 293.986 3.664 288.39 9.227 282.795 C11.162 280.846 13.092 278.894 15.023 276.941 C25.672 266.191 25.672 266.191 31.384 261.384 C34.432 258.774 37.237 255.91 40.062 253.062 C40.979 252.145 40.979 252.145 41.913 251.208 C45.54 247.549 48.973 243.793 52.297 239.855 C55.16 236.736 58.396 234.031 61.574 231.238 C64.452 228.583 66.943 225.715 69.469 222.73 C71.442 220.5 73.546 218.683 76 217 C76.66 217 77.32 217 78 217 C77.364 216.273 77.364 216.273 76.715 215.531 C75.468 214.107 74.227 212.678 72.988 211.246 C71.791 209.894 70.567 208.565 69.293 207.285 C55.518 193.058 49.532 171.931 48.688 152.625 C49.396 130.123 59.466 109.878 75 94 C71.24 88.944 66.805 85.28 61.895 81.355 C59.18 79.147 56.583 76.86 54 74.5 C49.757 70.638 45.377 66.992 40.918 63.383 C37.746 60.792 34.62 58.153 31.5 55.5 C27.531 52.127 23.54 48.788 19.5 45.5 C13.855 40.901 8.295 36.208 2.753 31.485 C0.888 29.905 -0.989 28.339 -2.867 26.773 C-4.141 25.703 -5.414 24.633 -6.688 23.562 C-7.588 22.818 -7.588 22.818 -8.507 22.059 C-11.389 19.623 -13.682 17.596 -15 14 C-14.169 13.241 -13.337 12.481 -12.48 11.699 C-11.383 10.695 -10.285 9.691 -9.188 8.688 C-8.64 8.188 -8.093 7.688 -7.529 7.174 C-4.318 4.254 -4.318 4.254 -1.363 1.082 C-0.913 0.725 -0.464 0.368 0 0 Z M76.188 122.688 C74.457 126.058 73.769 129.248 74 133 C75.255 136.743 77.274 139.392 80.312 141.938 C83.789 143.312 86.288 143.398 90 143 C94.096 141.19 96.732 138.864 99 135 C99.764 131.171 99.87 127.682 98.047 124.156 C94.84 120.016 91.64 118.338 86.562 117.688 C82.388 118.197 79.255 119.831 76.188 122.688 Z M-111.312 363.562 C-114.576 368.277 -114.735 372.357 -114 378 C-112.206 382.343 -109.682 384.567 -105.75 387.062 C-99.829 388.543 -95.38 387.345 -90.125 384.375 C-86.719 380.568 -84.934 376.836 -85.055 371.656 C-85.717 367.6 -86.689 364.814 -89.812 362.062 C-97.667 356.98 -104.524 356.041 -111.312 363.562 Z M16 635 C13.892 639.306 13.743 642.142 15.125 646.75 C17.492 650.905 17.492 650.905 21 654 C25.52 655.094 27.844 655.378 32.25 653.938 C35.999 651.296 38.477 648.674 39.383 644.043 C39.674 638.965 38.365 635.926 35 632 C28.162 627.837 21.176 628.94 16 635 Z " fill="#EEA422" transform="translate(697,473)"/>
<path d="M0 0 C1.009 2.246 2.007 4.496 3 6.75 C3.286 7.384 3.572 8.018 3.867 8.672 C5.36 12.084 6 14.208 6 18 C3.761 19.822 1.613 21.338 -0.812 22.875 C-2.296 23.855 -3.778 24.838 -5.258 25.824 C-6.428 26.6 -6.428 26.6 -7.622 27.392 C-11.555 30.052 -15.373 32.862 -19.188 35.688 C-19.976 36.271 -20.765 36.854 -21.577 37.455 C-28.487 42.584 -35.326 47.806 -42.161 53.036 C-48.685 58.02 -55.27 62.914 -61.891 67.77 C-70.233 73.892 -78.505 80.108 -86.775 86.327 C-89.931 88.7 -93.09 91.069 -96.25 93.438 C-97.65 94.487 -97.65 94.487 -99.078 95.559 C-99.712 96.034 -100.347 96.51 -101 97 C-100.472 97.623 -100.472 97.623 -99.934 98.258 C-86.339 115.225 -81.713 135.659 -83 157 C-84.486 168.463 -88.065 179.62 -94.312 189.375 C-96.861 193.445 -97.941 196.109 -97 201 C-94.152 205.718 -90.744 209.81 -87.125 213.938 C-86.563 214.582 -86.002 215.227 -85.423 215.891 C-80.663 221.32 -75.759 226.607 -70.811 231.865 C-67.986 234.867 -65.188 237.874 -62.5 241 C-59.113 244.94 -55.553 248.711 -52 252.5 C-47.801 256.979 -43.637 261.47 -39.629 266.121 C-36.148 270.136 -32.561 274.057 -29 278 C-24.232 283.28 -19.485 288.573 -14.812 293.938 C-12.728 296.31 -10.616 298.656 -8.5 301 C-3.712 306.311 1.022 311.661 5.645 317.117 C10.82 323.213 16.068 329.189 21.562 335 C25.942 339.654 30.102 344.421 34.062 349.438 C34.503 349.992 34.944 350.547 35.399 351.119 C38.329 354.899 40.868 358.711 43 363 C42.67 363.99 42.34 364.98 42 366 C37.522 364.542 34.331 362.075 30.836 359.02 C30.236 358.499 29.635 357.979 29.016 357.443 C20.494 349.936 12.595 341.77 4.625 333.688 C2.236 331.27 -0.155 328.855 -2.549 326.442 C-4.024 324.955 -5.496 323.466 -6.964 321.974 C-10.928 317.971 -14.994 314.165 -19.275 310.502 C-21.635 308.447 -23.818 306.241 -26 304 C-28.916 301.048 -31.846 298.196 -35 295.5 C-39.076 292.015 -42.796 288.219 -46.562 284.406 C-48.65 282.346 -50.772 280.405 -53 278.5 C-57.076 275.015 -60.796 271.219 -64.562 267.406 C-66.65 265.346 -68.772 263.405 -71 261.5 C-74.154 258.804 -77.084 255.952 -80 253 C-82.876 250.089 -85.759 247.276 -88.875 244.625 C-91.821 242.112 -94.563 239.456 -97.275 236.692 C-101.636 232.248 -106.05 227.9 -110.75 223.812 C-111.57 223.097 -112.39 222.382 -113.234 221.645 C-116.751 219.553 -119.956 218.838 -124 219 C-127.594 220.043 -127.594 220.043 -131.062 221.75 C-142.673 226.789 -154.187 228.321 -166.743 228.622 C-171.663 228.763 -171.663 228.763 -176 231 C-176.964 233.121 -176.964 233.121 -177.618 235.652 C-177.894 236.612 -178.169 237.572 -178.454 238.56 C-178.883 240.122 -178.883 240.122 -179.32 241.715 C-179.626 242.795 -179.931 243.875 -180.245 244.988 C-183.002 254.815 -185.586 264.687 -188.112 274.576 C-195.149 302.105 -202.552 329.535 -210.004 356.953 C-211.889 363.89 -213.761 370.83 -215.616 377.775 C-216.631 381.571 -217.654 385.366 -218.678 389.16 C-219.138 390.868 -219.594 392.576 -220.046 394.286 C-220.654 396.584 -221.275 398.878 -221.898 401.172 C-222.235 402.431 -222.572 403.69 -222.919 404.987 C-223.94 407.832 -224.658 409.164 -227 411 C-228.32 410.34 -229.64 409.68 -231 409 C-231.452 400.404 -230.05 392.239 -228.527 383.82 C-228.258 382.293 -227.989 380.766 -227.72 379.238 C-226.982 375.048 -226.232 370.859 -225.479 366.671 C-224.826 363.028 -224.177 359.383 -223.528 355.738 C-221.04 341.76 -218.526 327.787 -216.011 313.814 C-213.323 298.879 -210.647 283.942 -208 269 C-207.826 268.018 -207.652 267.036 -207.472 266.025 C-206.45 260.252 -205.436 254.479 -204.434 248.703 C-204.125 246.929 -203.814 245.156 -203.501 243.384 C-203.071 240.946 -202.649 238.507 -202.23 236.067 C-202.104 235.364 -201.978 234.66 -201.849 233.935 C-201.048 229.198 -200.723 224.784 -201 220 C-203.083 217.634 -203.083 217.634 -206 216 C-206.946 215.303 -207.892 214.605 -208.867 213.887 C-210.356 212.798 -210.356 212.798 -211.875 211.688 C-227.085 200.291 -237.891 183.743 -242 165 C-242 163.68 -242 162.36 -242 161 C-242.589 161.01 -243.178 161.021 -243.785 161.032 C-250.391 161.097 -256.877 160.693 -263.454 160.098 C-265.102 159.954 -265.102 159.954 -266.784 159.807 C-270.392 159.491 -273.999 159.169 -277.605 158.848 C-280.134 158.625 -282.662 158.404 -285.19 158.182 C-291.157 157.659 -297.124 157.132 -303.091 156.603 C-314.382 155.602 -325.674 154.609 -336.965 153.617 C-340.652 153.292 -344.338 152.965 -348.023 152.638 C-350.315 152.436 -352.607 152.233 -354.899 152.031 C-356.517 151.888 -356.517 151.888 -358.168 151.742 C-365.094 151.138 -372.013 150.651 -378.959 150.334 C-382.506 149.944 -385.597 149.063 -389 148 C-388.505 146.02 -388.505 146.02 -388 144 C-379.021 143.819 -370.042 143.654 -361.062 143.5 C-360.372 143.488 -359.681 143.476 -358.969 143.464 C-332.479 143.014 -305.994 142.913 -279.5 142.938 C-278.129 142.939 -278.129 142.939 -276.731 142.94 C-265.487 142.951 -254.244 142.971 -243 143 C-242.938 142.18 -242.877 141.359 -242.813 140.514 C-242.729 139.436 -242.644 138.358 -242.557 137.248 C-242.475 136.18 -242.392 135.112 -242.308 134.012 C-240.414 115.47 -227.934 97.754 -214.375 85.812 C-196.06 71.193 -175.156 66.512 -152 68 C-136.876 69.778 -122.388 77.063 -111 87 C-109.005 88.673 -107.002 90.336 -105 92 C-104.352 91.389 -104.352 91.389 -103.69 90.766 C-95.536 83.09 -87.361 75.451 -79 68 C-77.291 66.459 -75.583 64.917 -73.875 63.375 C-70.298 60.155 -66.692 56.973 -63.062 53.812 C-60.69 51.728 -58.344 49.616 -56 47.5 C-52.383 44.236 -48.736 41.012 -45.062 37.812 C-42.69 35.728 -40.344 33.616 -38 31.5 C-34.383 28.236 -30.736 25.012 -27.062 21.812 C-24.69 19.728 -22.344 17.616 -20 15.5 C-2.81 0 -2.81 0 0 0 Z M-218 110 C-220.373 113.774 -220.146 116.522 -219.539 120.812 C-218.749 124.02 -217.419 125.783 -215 128 C-211.986 129.792 -210.147 130 -206.625 130 C-202.013 128.728 -199.243 126.454 -196 123 C-194.468 119.936 -194.771 117.383 -195 114 C-196.4 110.579 -197.619 109.257 -200.688 107.188 C-207.529 104.735 -212.313 105.125 -218 110 Z " fill="#ECA321" transform="translate(538,443)"/>
<path d="M0 0 C1.362 1.136 2.717 2.281 4.062 3.438 C4.964 4.141 4.964 4.141 5.883 4.859 C19.413 15.66 26.221 30.599 31.223 46.692 C31.535 47.663 31.847 48.633 32.168 49.633 C32.438 50.51 32.707 51.386 32.985 52.29 C33.9 54.521 33.9 54.521 35.796 55.705 C38.657 56.63 41.219 56.818 44.227 56.965 C45.542 57.033 46.858 57.102 48.213 57.172 C49.705 57.24 51.196 57.308 52.688 57.375 C54.285 57.453 55.883 57.532 57.48 57.611 C61.174 57.792 64.868 57.966 68.563 58.136 C73.231 58.351 77.899 58.574 82.566 58.802 C112.216 60.248 141.856 61.681 171.541 62.147 C198.68 62.582 198.68 62.582 207.062 66.438 C206.812 68.312 206.812 68.312 206.062 70.438 C203.102 72.321 200.705 72.71 197.234 72.801 C196.258 72.831 195.282 72.861 194.276 72.892 C193.204 72.916 192.132 72.94 191.027 72.965 C189.309 73.015 189.309 73.015 187.556 73.066 C184.374 73.158 181.193 73.241 178.011 73.322 C174.619 73.411 171.228 73.511 167.837 73.611 C167.138 73.632 166.439 73.652 165.719 73.674 C164.274 73.716 162.828 73.759 161.383 73.802 C159.129 73.868 156.876 73.933 154.622 73.999 C136.874 74.515 119.131 75.155 101.387 75.8 C96.844 75.965 92.301 76.128 87.758 76.29 C84.291 76.414 80.823 76.539 77.356 76.665 C75.755 76.723 74.155 76.78 72.555 76.837 C68.153 76.994 63.753 77.165 59.352 77.348 C56.871 77.445 54.388 77.521 51.906 77.597 C50.191 77.662 48.476 77.727 46.76 77.793 C45.567 77.823 45.567 77.823 44.35 77.853 C39.811 78.047 36.767 78.541 33.062 81.438 C31.897 83.389 31.897 83.389 31.324 85.648 C31.066 86.475 30.808 87.301 30.542 88.152 C30.15 89.469 30.15 89.469 29.75 90.812 C23.492 110.02 11.322 124.928 -5.25 136.438 C-8.917 139.21 -11.255 141.783 -11.938 146.438 C-11.801 156.938 -10.021 167.323 -8.375 177.668 C-8.108 179.374 -7.842 181.08 -7.577 182.786 C-7.004 186.466 -6.427 190.145 -5.849 193.824 C-4.263 203.909 -2.701 213.997 -1.141 224.086 C-0.892 225.692 -0.892 225.692 -0.638 227.331 C3.617 254.835 7.686 282.366 11.745 309.9 C12.311 313.74 12.877 317.579 13.444 321.419 C14.51 328.65 15.576 335.882 16.641 343.113 C16.802 344.208 16.963 345.303 17.129 346.43 C17.862 351.411 18.593 356.391 19.32 361.372 C19.778 364.504 20.241 367.635 20.714 370.765 C20.897 371.996 21.08 373.228 21.269 374.497 C21.499 376.019 21.499 376.019 21.733 377.572 C22.265 382.195 22.233 386.794 22.062 391.438 C20.743 391.767 19.423 392.098 18.062 392.438 C15.301 388.399 14.135 384.435 13.13 379.713 C12.961 378.951 12.791 378.188 12.616 377.402 C12.055 374.875 11.508 372.346 10.961 369.816 C10.565 368.018 10.168 366.219 9.771 364.42 C8.73 359.697 7.7 354.972 6.673 350.246 C5.896 346.671 5.113 343.098 4.33 339.524 C1.974 328.766 -0.361 318.003 -2.692 307.24 C-3.759 302.316 -4.828 297.393 -5.896 292.469 C-6.114 291.467 -6.332 290.464 -6.556 289.431 C-6.999 287.39 -7.443 285.348 -7.886 283.306 C-8.555 280.224 -9.224 277.141 -9.893 274.059 C-14.315 253.688 -18.749 233.32 -23.193 212.954 C-24.015 209.186 -24.837 205.417 -25.658 201.647 C-26.622 197.22 -27.588 192.792 -28.555 188.365 C-28.905 186.759 -29.255 185.153 -29.605 183.547 C-30.393 179.926 -31.186 176.307 -31.995 172.691 C-32.666 169.693 -33.302 166.69 -33.925 163.682 C-34.258 162.133 -34.593 160.583 -34.928 159.034 C-35.07 158.315 -35.213 157.597 -35.359 156.857 C-36.039 153.79 -36.618 151.767 -38.83 149.486 C-42.132 147.844 -45.515 148.036 -49.125 148 C-71.332 147.192 -92.662 138.951 -108.191 122.527 C-124.988 102.424 -130.925 80.355 -128.938 54.438 C-126.513 34.331 -113.233 14.024 -97.637 1.605 C-69.351 -19.101 -28.509 -21.767 0 0 Z M-94.938 36.438 C-96.537 39.636 -96.299 42.959 -95.938 46.438 C-94.076 50.988 -91.327 53.284 -86.938 55.438 C-82.395 55.9 -79.038 54.851 -75.5 52 C-72.404 48.904 -71.75 47.433 -71.562 43.188 C-71.591 39.669 -72.027 37.688 -74.25 34.938 C-78.165 31.296 -81.511 31.045 -86.645 31.078 C-90.535 31.688 -92.26 33.626 -94.938 36.438 Z " fill="#ECA321" transform="translate(1059.9375,290.5625)"/>
<path d="M0 0 C-0.382 3.442 -1.881 5.356 -4.341 7.721 C-7.668 10.286 -11.61 11.564 -15.5 13.062 C-17.66 13.929 -19.817 14.802 -21.973 15.68 C-22.576 15.925 -23.18 16.171 -23.802 16.424 C-33.269 20.305 -42.594 24.521 -51.938 28.688 C-52.915 29.123 -53.893 29.559 -54.9 30.007 C-71.939 37.601 -88.937 45.282 -105.901 53.04 C-108.921 54.421 -111.941 55.799 -114.961 57.178 C-120.339 59.634 -125.717 62.09 -131.094 64.548 C-131.785 64.864 -132.477 65.18 -133.189 65.505 C-134.537 66.122 -135.884 66.741 -137.231 67.361 C-140.417 68.827 -143.609 70.272 -146.826 71.671 C-148.586 72.449 -148.586 72.449 -150.383 73.242 C-151.418 73.691 -152.453 74.139 -153.52 74.601 C-156.091 76.051 -156.983 76.889 -158.125 79.562 C-158.655 81.661 -158.655 81.661 -159 84 C-162.176 100.401 -169.083 114.181 -183.188 123.812 C-193.641 130.041 -204.757 133.199 -216.875 133.188 C-217.931 133.188 -217.931 133.188 -219.008 133.189 C-224.006 133.139 -228.275 132.575 -233 131 C-233.24 131.65 -233.48 132.299 -233.727 132.969 C-235.393 136.934 -237.366 140.699 -239.375 144.5 C-239.816 145.335 -240.256 146.171 -240.71 147.031 C-244.399 153.972 -248.268 160.8 -252.192 167.611 C-258.276 178.182 -264.168 188.858 -270.077 199.528 C-273.829 206.301 -277.592 213.068 -281.354 219.836 C-284.255 225.054 -287.153 230.274 -290.043 235.498 C-291.391 237.934 -292.74 240.37 -294.09 242.806 C-295.029 244.501 -295.966 246.198 -296.902 247.895 C-300.476 254.343 -304.158 260.708 -308 267 C-307.359 267.534 -306.719 268.067 -306.059 268.617 C-294.163 278.864 -285.535 292.064 -283.779 308.005 C-282.777 325.448 -287.514 340.3 -298.812 353.812 C-310.112 365.829 -325.026 372.015 -341.309 372.965 C-357.06 373.115 -372.214 367.684 -383.688 356.812 C-395.017 344.903 -401.772 329.793 -402.066 313.273 C-401.119 295.529 -393.927 281.977 -380.844 270.031 C-369.897 260.988 -355.863 255.141 -341.477 255.707 C-334.105 256.579 -326.712 257.902 -319.766 260.559 C-319.057 260.829 -318.348 261.099 -317.618 261.377 C-316.817 261.685 -316.817 261.685 -316 262 C-306.204 239.122 -296.437 216.236 -287.057 193.183 C-280.444 176.939 -273.572 160.808 -266.648 144.693 C-266.236 143.73 -265.824 142.767 -265.399 141.775 C-264.633 139.988 -263.865 138.202 -263.094 136.417 C-260.5 130.356 -258.199 124.214 -256 118 C-256.532 117.473 -257.064 116.947 -257.613 116.404 C-262.272 111.704 -265.455 106.752 -268.375 100.875 C-268.708 100.207 -269.041 99.538 -269.385 98.85 C-275.649 85.795 -276.339 72.201 -272.219 58.379 C-269.853 51.843 -266.188 46.503 -262 41 C-261.278 39.989 -260.556 38.979 -259.812 37.938 C-250.041 26.66 -235.583 19.963 -221 18 C-206.799 17.402 -190.014 22.593 -178.984 31.656 C-175.92 34.588 -173.378 37.771 -170.875 41.188 C-167.598 45.638 -165.053 48.44 -159.562 49.938 C-147.666 50.8 -135.719 45.251 -124.845 41.085 C-103.917 33.103 -82.773 25.734 -61.598 18.44 C-51.655 15.014 -41.725 11.562 -31.836 7.984 C-30.117 7.366 -28.399 6.748 -26.68 6.13 C-24.271 5.264 -21.865 4.394 -19.463 3.508 C-17.299 2.709 -15.129 1.927 -12.957 1.148 C-11.75 0.707 -10.543 0.265 -9.3 -0.19 C-5.769 -1.057 -3.5 -0.865 0 0 Z M-254 60 C-255.55 64.65 -256.099 69.427 -254.129 74.039 C-251.256 78.466 -248.212 80.697 -243 82 C-238.124 81.791 -234.868 80.702 -231.062 77.625 C-227.689 73.332 -226.506 70.68 -226.695 65.023 C-227.227 61.492 -228.621 59.617 -231 57 C-239.526 51.269 -247.085 51.804 -254 60 Z M-388 309 C-389.616 312.232 -389.585 315.506 -389 319 C-387.311 322.095 -384.946 324.25 -382.188 326.438 C-378.656 327.346 -375.441 327.044 -372 326 C-369.041 324.18 -366.58 322.16 -365 319 C-364.483 313.248 -364.483 313.248 -366.75 308.125 C-370.819 304.282 -374.257 303.506 -379.742 303.605 C-383.591 304.278 -385.34 306.207 -388 309 Z " fill="#ECA321" transform="translate(1309,674)"/>
<path d="M0 0 C1.67 1.431 3.315 2.891 4.938 4.375 C6.351 5.667 6.351 5.667 7.793 6.984 C19.057 17.593 27.42 31.763 28.07 47.609 C28.047 58.247 28.047 58.247 27.438 62.938 C26.55 69.904 26.155 77.003 27.75 83.875 C33.777 90.763 45.675 93.203 54.098 96.148 C55.357 96.593 56.616 97.038 57.875 97.484 C61.223 98.667 64.572 99.844 67.922 101.02 C71.428 102.252 74.933 103.489 78.438 104.727 C79.85 105.225 81.262 105.723 82.673 106.221 C83.37 106.467 84.067 106.713 84.785 106.967 C86.892 107.71 88.999 108.453 91.106 109.195 C99.042 111.993 106.971 114.81 114.887 117.664 C115.77 117.982 116.652 118.3 117.562 118.628 C118.42 118.937 119.279 119.247 120.163 119.565 C136.329 125.391 152.559 130.974 168.875 136.368 C181.726 140.616 194.539 144.96 207.312 149.438 C208.457 149.837 208.457 149.837 209.625 150.244 C234.589 158.96 234.589 158.96 240.938 164.375 C240.277 165.695 239.618 167.015 238.938 168.375 C231.745 168.722 225.641 167.852 218.742 165.867 C217.754 165.594 216.766 165.322 215.748 165.041 C212.433 164.122 209.123 163.186 205.812 162.25 C203.418 161.583 201.024 160.918 198.629 160.254 C194.72 159.169 190.81 158.082 186.903 156.99 C176.07 153.961 165.225 150.977 154.375 148.008 C150.969 147.075 147.562 146.142 144.156 145.209 C142.88 144.86 142.88 144.86 141.578 144.503 C98.646 132.742 98.646 132.742 77.812 126.809 C76.594 126.462 75.375 126.115 74.12 125.757 C68.626 124.192 63.135 122.617 57.648 121.029 C33.429 113.376 33.429 113.376 8.438 110.25 C7.726 110.247 7.014 110.245 6.281 110.242 C3.453 110.402 0.727 110.894 -2.062 111.375 C6.679 132.576 15.625 153.684 24.688 174.75 C33.158 194.441 41.488 214.182 49.61 234.019 C54.597 246.191 59.72 258.3 64.938 270.375 C65.537 270.306 66.137 270.236 66.755 270.165 C67.551 270.074 68.347 269.984 69.168 269.891 C69.953 269.801 70.739 269.711 71.548 269.618 C83.721 268.38 95.116 270.789 104.938 278.375 C113.809 286.514 119.015 296.328 119.938 308.375 C120.072 321.364 115.782 331.202 106.902 340.508 C97.995 349.023 88.177 351.734 76.059 351.586 C65.406 350.866 55.947 345.866 48.625 338.188 C40.231 328.162 38.028 317.155 38.72 304.453 C39.799 294.156 45.825 284.35 53.785 277.871 C55.438 276.75 55.438 276.75 57.938 275.375 C53.794 267.734 49.574 260.139 45.312 252.562 C37.179 238.063 29.192 223.489 21.37 208.818 C14.288 195.537 7.044 182.364 -0.409 169.286 C-5.125 160.983 -9.768 152.638 -14.424 144.302 C-16 141.487 -17.583 138.677 -19.168 135.867 C-20.091 134.224 -21.014 132.581 -21.938 130.938 C-22.361 130.192 -22.784 129.447 -23.219 128.678 C-26.062 123.601 -26.062 123.601 -26.062 121.375 C-27.005 121.399 -27.005 121.399 -27.968 121.423 C-48.905 121.876 -64.897 120.703 -80.784 105.604 C-82.22 104.204 -83.642 102.79 -85.062 101.375 C-85.806 100.666 -86.55 99.957 -87.316 99.227 C-98.38 87.925 -103.987 72.029 -104.438 56.438 C-103.953 37.461 -96.598 20.572 -83.875 6.625 C-61.631 -14.118 -25.004 -19.225 0 0 Z M-78.375 32.938 C-81.639 37.652 -81.798 41.732 -81.062 47.375 C-79.269 51.718 -76.744 53.942 -72.812 56.438 C-66.891 57.918 -62.442 56.72 -57.188 53.75 C-53.782 49.943 -51.996 46.211 -52.117 41.031 C-52.78 36.975 -53.751 34.189 -56.875 31.438 C-64.73 26.355 -71.587 25.416 -78.375 32.938 Z M48.938 304.375 C46.829 308.681 46.68 311.517 48.062 316.125 C50.429 320.28 50.429 320.28 53.938 323.375 C58.458 324.469 60.781 324.753 65.188 323.312 C68.936 320.671 71.414 318.049 72.32 313.418 C72.612 308.34 71.303 305.301 67.938 301.375 C61.1 297.212 54.113 298.315 48.938 304.375 Z " fill="#0E63B3" transform="translate(664.0625,803.625)"/>
<path d="M0 0 C11.655 10.979 19.746 25.575 20.574 41.754 C20.899 60.136 16.971 75.721 4.434 89.598 C3.682 90.367 2.931 91.137 2.156 91.93 C0.305 93.67 0.305 93.67 -0.629 95.785 C0.062 96.038 0.753 96.29 1.465 96.551 C4.773 97.956 7.801 99.694 10.875 101.539 C11.502 101.911 12.128 102.284 12.774 102.668 C14.829 103.891 16.882 105.119 18.934 106.348 C20.379 107.21 21.825 108.072 23.271 108.934 C33.475 115.022 43.635 121.18 53.781 127.363 C62.67 132.775 71.606 138.105 80.559 143.41 C81.92 144.217 83.281 145.024 84.643 145.831 C85.309 146.226 85.976 146.621 86.662 147.028 C87.323 147.42 87.983 147.811 88.664 148.215 C89.319 148.603 89.974 148.992 90.649 149.392 C100.917 155.479 111.163 161.599 121.371 167.785 C122.493 168.462 123.614 169.139 124.77 169.836 C128.167 171.888 131.551 173.96 134.934 176.035 C135.982 176.668 137.031 177.3 138.111 177.952 C139.065 178.542 140.018 179.131 141 179.738 C141.846 180.256 142.693 180.773 143.565 181.306 C144.161 181.794 144.757 182.282 145.371 182.785 C145.371 185.785 145.371 185.785 143.289 188.125 C142.388 188.982 141.487 189.839 140.559 190.723 C137.545 193.605 134.762 196.361 132.371 199.785 C129.153 199.161 126.975 198.046 124.281 196.195 C123.504 195.664 122.727 195.132 121.926 194.584 C121.103 194.011 120.281 193.438 119.434 192.848 C118.579 192.257 117.724 191.667 116.844 191.058 C111.019 187.006 105.362 182.8 99.777 178.422 C95.708 175.245 91.537 172.209 87.371 169.16 C80.371 164.031 73.447 158.813 66.559 153.535 C60.363 148.79 54.133 144.13 47.748 139.645 C41.51 135.232 35.479 130.548 29.417 125.899 C22.818 120.851 16.138 115.933 9.365 111.12 C4.776 107.849 0.382 104.447 -3.805 100.664 C-5.684 99.51 -5.684 99.51 -8.066 100.473 C-8.912 100.906 -9.758 101.339 -10.629 101.785 C-11.396 102.176 -12.163 102.566 -12.953 102.969 C-13.733 103.383 -14.513 103.796 -15.316 104.223 C-30.168 111.715 -46.051 112.632 -61.898 107.785 C-79.426 101.464 -92.134 90.441 -100.629 73.785 C-106.746 58.872 -108.448 40.928 -102.816 25.598 C-102.425 24.67 -102.033 23.741 -101.629 22.785 C-101.278 21.919 -100.928 21.053 -100.566 20.16 C-94.034 5.644 -81.862 -5.142 -67.289 -11.223 C-43.51 -20.092 -19.689 -16.588 0 0 Z M-83.004 13.348 C-86.022 17.875 -86.245 21.418 -85.629 26.785 C-84.274 30.982 -82.062 33.812 -78.379 36.223 C-74.291 38.253 -71.151 38.288 -66.629 37.785 C-60.954 35.782 -57.322 32.172 -54.629 26.785 C-54.279 21.445 -54.148 18.106 -57.629 13.785 C-61.669 9.963 -65.555 8.179 -71.066 7.473 C-76.004 8.075 -79.621 9.698 -83.004 13.348 Z " fill="#ECA321" transform="translate(417.62890625,162.21484375)"/>
<path d="M0 0 C13.618 10.613 25.721 27.334 27.984 44.93 C29.469 65.063 25.147 82.73 12.734 98.867 C1.707 111.443 -14.301 120.687 -31.15 122.11 C-50.817 123.267 -68.283 118.384 -83.418 105.34 C-96.808 92.917 -106.012 77.916 -107.254 59.371 C-107.608 40.867 -101.987 25.17 -90.016 10.93 C-89.398 10.112 -88.781 9.295 -88.145 8.453 C-66.353 -17.377 -26.367 -18.102 0 0 Z M-76.391 23.617 C-78.361 27.634 -78.883 30.542 -78.016 34.93 C-75.793 39.293 -73.565 42.025 -69.016 43.93 C-64.718 44.477 -62.601 44.245 -58.766 42.18 C-55.61 39.598 -53.357 37.652 -52.547 33.562 C-52.493 29.24 -52.466 25.935 -55.203 22.43 C-58.617 19.395 -60.964 18.193 -65.453 17.617 C-70.276 18.205 -73.194 20 -76.391 23.617 Z " fill="#EEA422" transform="translate(795.015625,117.0703125)"/>
<path d="M0 0 C0.636 0.471 1.271 0.941 1.926 1.426 C14.798 11.457 22.275 27.154 24.59 43.023 C26.317 59.767 21.04 76.943 10.523 90.098 C5.077 96.425 -0.801 101.715 -8 106 C-8.754 106.459 -9.508 106.918 -10.285 107.391 C-25.072 115.586 -42.515 117.279 -58.812 113.438 C-74.507 108.682 -88.807 97.655 -96.974 83.287 C-106.223 65.83 -109.157 47.596 -103.316 28.527 C-96.356 9.877 -83.709 -2.19 -66.023 -10.715 C-42.792 -20.59 -19.356 -15.417 0 0 Z M-85 29 C-87.982 33.328 -88.639 36.801 -88 42 C-86.319 46.18 -84.108 49.946 -80 52 C-74.268 53.433 -70.898 53.187 -65.762 50.23 C-61.921 47.548 -60.31 45.116 -59.062 40.625 C-58.986 36.207 -59.771 33.81 -62 30 C-69.378 24.159 -77.482 22.725 -85 29 Z " fill="#0E64B4" transform="translate(317,907)"/>
<path d="M0 0 C-0.382 3.442 -1.881 5.356 -4.341 7.721 C-7.668 10.286 -11.61 11.564 -15.5 13.062 C-17.66 13.929 -19.817 14.802 -21.973 15.68 C-22.576 15.925 -23.18 16.171 -23.802 16.424 C-33.269 20.305 -42.594 24.521 -51.938 28.688 C-52.915 29.123 -53.893 29.559 -54.9 30.007 C-71.939 37.601 -88.937 45.282 -105.901 53.04 C-108.921 54.421 -111.941 55.799 -114.961 57.178 C-120.339 59.634 -125.717 62.09 -131.094 64.548 C-131.785 64.864 -132.477 65.18 -133.189 65.505 C-134.537 66.122 -135.884 66.741 -137.231 67.361 C-140.417 68.827 -143.609 70.272 -146.826 71.671 C-148.586 72.449 -148.586 72.449 -150.383 73.242 C-151.418 73.691 -152.453 74.139 -153.52 74.601 C-156.091 76.051 -156.983 76.889 -158.125 79.562 C-158.655 81.661 -158.655 81.661 -159 84 C-162.176 100.401 -169.083 114.181 -183.188 123.812 C-197.081 132.09 -212.785 135.025 -228.699 132.387 C-243.025 128.745 -256.48 120.119 -264.75 107.75 C-272.743 94.306 -276.777 80.63 -274 65 C-271.586 55.814 -267.891 48.409 -262 41 C-261.278 39.989 -260.556 38.979 -259.812 37.938 C-250.041 26.66 -235.583 19.963 -221 18 C-206.799 17.402 -190.014 22.593 -178.984 31.656 C-175.92 34.588 -173.378 37.771 -170.875 41.188 C-167.598 45.638 -165.053 48.44 -159.562 49.938 C-147.666 50.8 -135.719 45.251 -124.845 41.085 C-103.917 33.103 -82.773 25.734 -61.598 18.44 C-51.655 15.014 -41.725 11.562 -31.836 7.984 C-30.117 7.366 -28.399 6.748 -26.68 6.13 C-24.271 5.264 -21.865 4.394 -19.463 3.508 C-17.299 2.709 -15.129 1.927 -12.957 1.148 C-11.75 0.707 -10.543 0.265 -9.3 -0.19 C-5.769 -1.057 -3.5 -0.865 0 0 Z M-254 60 C-255.55 64.65 -256.099 69.427 -254.129 74.039 C-251.256 78.466 -248.212 80.697 -243 82 C-238.124 81.791 -234.868 80.702 -231.062 77.625 C-227.689 73.332 -226.506 70.68 -226.695 65.023 C-227.227 61.492 -228.621 59.617 -231 57 C-239.526 51.269 -247.085 51.804 -254 60 Z " fill="#0E63B2" transform="translate(1309,674)"/>
<path d="M0 0 C9.265 7.823 16.739 18.91 19.273 30.934 C20.783 52.021 19.385 68.815 5.246 85.297 C-4.923 96.238 -19.274 103.153 -34.223 104.172 C-51.485 104.497 -65.853 99.799 -78.539 87.684 C-91.126 74.373 -97.144 58.862 -96.934 40.582 C-95.992 23.993 -87.776 9.907 -75.727 -1.066 C-53.232 -18.863 -22.158 -16.793 0 0 Z M-76.727 35.934 C-78.461 39.403 -78.198 43.141 -77.727 46.934 C-75.722 50.736 -74.3 52.552 -70.727 54.934 C-66.54 55.537 -62.792 55.351 -58.852 53.809 C-55.125 50.52 -53.899 47.316 -53.289 42.434 C-53.815 38.228 -55.02 36.166 -57.727 32.934 C-64.84 28.588 -71.248 30.181 -76.727 35.934 Z " fill="#EEA422" transform="translate(1399.7265625,590.06640625)"/>
<path d="M0 0 C3.84 3.525 6.176 6.753 8.438 11.438 C8.765 12.112 9.093 12.786 9.431 13.48 C13.507 21.922 17.419 30.445 21.366 38.947 C27.243 51.592 33.323 64.135 39.418 76.675 C42.055 82.104 44.656 87.55 47.25 93 C53.083 105.242 59.039 117.425 64.997 129.606 C68.556 136.888 72.102 144.171 75.527 151.516 C76.03 152.59 76.533 153.664 77.051 154.771 C77.944 156.69 78.829 158.613 79.703 160.541 C80.089 161.368 80.474 162.195 80.871 163.047 C81.19 163.747 81.509 164.446 81.838 165.167 C84.083 168.707 86.55 169.878 90.539 170.957 C91.9 171.246 93.262 171.531 94.625 171.812 C101.6 173.417 107.245 175.604 113 180 C113.632 180.478 114.263 180.956 114.914 181.449 C122.575 188.148 127.475 199.108 128.238 209.129 C128.495 221.013 126.292 231.154 118 240 C109.719 248.367 101.649 252.218 89.938 252.312 C79.602 252.347 72.386 250.241 64 244 C62.793 243.196 62.793 243.196 61.562 242.375 C53.466 234.871 49.068 226.192 48.6 215.223 C48.433 205.938 50.268 198.286 55.188 190.375 C57.896 185.331 58.727 181.097 57.402 175.451 C53.962 164.541 50.039 153.81 46.125 143.062 C45.356 140.943 44.587 138.824 43.819 136.705 C40.433 127.377 37.033 118.056 33.578 108.754 C33.312 108.038 33.046 107.322 32.773 106.584 C32.508 105.872 32.244 105.16 31.971 104.427 C25.008 85.669 18.279 66.83 11.599 47.97 C10.818 45.766 10.037 43.563 9.255 41.359 C8.012 37.855 6.771 34.349 5.533 30.843 C5.073 29.541 4.612 28.24 4.151 26.938 C2.742 22.967 1.357 18.989 0 15 C-0.33 14.03 -0.66 13.059 -1.001 12.06 C-1.286 11.177 -1.571 10.294 -1.865 9.384 C-2.111 8.627 -2.357 7.87 -2.611 7.091 C-3.056 4.696 -2.88 3.263 -2 1 C-1.34 0.67 -0.68 0.34 0 0 Z " fill="#EBA221" transform="translate(1011,1059)"/>
<path d="M0 0 C2.253 1.586 2.85 2.683 3.881 5.219 C4.217 6.024 4.553 6.829 4.898 7.659 C5.252 8.545 5.606 9.431 5.971 10.344 C6.776 12.288 7.58 14.232 8.385 16.176 C9.01 17.706 9.01 17.706 9.648 19.268 C11.672 24.207 13.762 29.117 15.846 34.031 C16.295 35.094 16.743 36.158 17.206 37.253 C20.092 44.088 23.007 50.909 25.944 57.723 C34.894 78.504 43.691 99.339 52.276 120.274 C57.368 132.683 62.588 145.031 67.908 157.344 C68.508 157.274 69.108 157.205 69.726 157.134 C70.522 157.043 71.318 156.953 72.139 156.859 C72.924 156.769 73.709 156.68 74.519 156.587 C86.692 155.348 98.087 157.758 107.908 165.344 C116.78 173.483 121.986 183.297 122.908 195.344 C123.043 208.332 118.753 218.171 109.873 227.477 C100.966 235.991 91.148 238.703 79.03 238.555 C68.377 237.835 58.918 232.835 51.596 225.156 C43.202 215.131 40.998 204.124 41.691 191.421 C42.77 181.125 48.796 171.319 56.756 164.84 C58.408 163.719 58.408 163.719 60.908 162.344 C56.765 154.702 52.545 147.107 48.283 139.531 C40.149 125.031 32.163 110.457 24.341 95.787 C17.259 82.506 10.015 69.333 2.562 56.255 C-1.585 48.953 -5.673 41.617 -9.767 34.285 C-11.897 30.472 -14.039 26.668 -16.197 22.871 C-16.668 22.037 -17.139 21.204 -17.624 20.345 C-18.494 18.805 -19.368 17.269 -20.249 15.735 C-23.092 10.682 -23.092 10.682 -23.092 7.344 C-22.246 7.101 -21.4 6.859 -20.529 6.609 C-12.804 4.349 -12.804 4.349 -5.529 0.969 C-2.092 -0.656 -2.092 -0.656 0 0 Z M51.908 191.344 C49.8 195.65 49.651 198.486 51.033 203.094 C53.4 207.249 53.4 207.249 56.908 210.344 C61.429 211.437 63.752 211.722 68.158 210.281 C71.907 207.64 74.385 205.018 75.291 200.387 C75.583 195.309 74.274 192.27 70.908 188.344 C64.071 184.181 57.084 185.284 51.908 191.344 Z " fill="#E9A021" transform="translate(661.091552734375,916.65625)"/>
<path d="M0 0 C8.172 6.053 12.158 14.233 15.32 23.719 C16.134 36.837 15.71 48.284 7 58.879 C-0.707 67.321 -9.257 72.365 -20.805 73.656 C-31.354 74.11 -40.797 71.442 -49.098 64.777 C-55.873 58.433 -62.065 50.125 -62.857 40.587 C-63.262 25.474 -62.307 16.025 -52.105 4.203 C-37.693 -10.558 -16.926 -10.824 0 0 Z M-47.055 9.719 C-49.943 12.514 -49.943 12.514 -50.367 16.219 C-49.498 20.646 -48.403 22.184 -44.68 24.719 C-40.721 24.788 -38.535 24.289 -35.242 22.094 C-33.047 18.757 -33.12 16.633 -33.68 12.719 C-35.702 9.763 -37.206 8.894 -40.555 7.656 C-43.885 7.466 -43.885 7.466 -47.055 9.719 Z " fill="#0E63B3" transform="translate(125.6796875,559.28125)"/>
<path d="M0 0 C9.4 6.93 14.594 15.406 18.25 26.375 C19.127 37.947 18.093 49.849 10.969 59.383 C3.811 67.679 -5.645 73.738 -16.781 74.613 C-30.342 74.903 -40.009 71.653 -49.84 62.41 C-57.73 54.285 -61.444 44.893 -61.875 33.602 C-61.416 21.767 -56.581 11.717 -48.062 3.5 C-34.709 -7.35 -14.713 -9.116 0 0 Z M-45.75 30.375 C-47.177 33.228 -47.06 35.21 -46.75 38.375 C-44.95 41.075 -43.666 42.917 -40.75 44.375 C-36.457 44.861 -34.429 44.837 -30.812 42.375 C-27.959 38.224 -28.04 36.345 -28.75 31.375 C-30.867 28.072 -32.363 27.49 -36.125 26.375 C-40.587 26.375 -42.366 27.555 -45.75 30.375 Z " fill="#0E62B2" transform="translate(1339.75,322.625)"/>
<path d="M0 0 C1.65 0.99 3.3 1.98 5 3 C4.416 7.087 2.263 9.556 -0.25 12.75 C-0.909 13.592 -0.909 13.592 -1.582 14.451 C-5.694 19.677 -9.898 24.83 -14.106 29.979 C-17.668 34.34 -21.167 38.744 -24.625 43.188 C-28.66 48.365 -32.831 53.404 -37.093 58.396 C-40.387 62.258 -43.574 66.188 -46.727 70.164 C-49.679 73.847 -52.683 77.485 -55.688 81.125 C-70.366 98.928 -70.366 98.928 -84.512 117.154 C-87.857 121.582 -91.351 125.818 -95 130 C-99.824 127.763 -102.826 124.229 -106.465 120.41 C-108.854 118.139 -111.114 116.565 -114 115 C-112.385 110.958 -109.521 108.246 -106.484 105.241 C-105.921 104.676 -105.358 104.111 -104.778 103.529 C-102.917 101.664 -101.048 99.807 -99.18 97.949 C-97.879 96.649 -96.578 95.349 -95.277 94.048 C-92.548 91.321 -89.816 88.597 -87.081 85.875 C-83.593 82.404 -80.111 78.926 -76.631 75.446 C-73.943 72.757 -71.252 70.072 -68.56 67.387 C-67.276 66.107 -65.994 64.826 -64.711 63.544 C-52.586 51.434 -52.586 51.434 -46.623 46.397 C-43.578 43.776 -40.766 40.913 -37.938 38.062 C-37.327 37.451 -36.716 36.839 -36.087 36.208 C-32.46 32.549 -29.027 28.793 -25.703 24.855 C-22.84 21.736 -19.604 19.031 -16.426 16.238 C-13.548 13.583 -11.057 10.715 -8.531 7.73 C-6.558 5.5 -4.454 3.683 -2 2 C-1.34 2 -0.68 2 0 2 C0 1.34 0 0.68 0 0 Z " fill="#E59E20" transform="translate(775,688)"/>
<path d="M0 0 C1.371 0.001 1.371 0.001 2.769 0.003 C14.013 0.014 25.256 0.035 36.5 0.062 C36.83 6.003 37.16 11.942 37.5 18.062 C30.284 18.157 23.231 17.811 16.046 17.16 C14.947 17.064 13.848 16.969 12.716 16.87 C9.108 16.554 5.501 16.232 1.895 15.91 C-0.634 15.688 -3.162 15.466 -5.69 15.245 C-11.657 14.721 -17.624 14.194 -23.591 13.665 C-34.882 12.664 -46.174 11.671 -57.465 10.679 C-61.152 10.355 -64.838 10.028 -68.523 9.7 C-70.815 9.498 -73.107 9.296 -75.399 9.094 C-76.478 8.998 -77.557 8.903 -78.668 8.805 C-85.594 8.201 -92.513 7.713 -99.459 7.396 C-103.006 7.007 -106.097 6.125 -109.5 5.062 C-109.17 3.742 -108.84 2.423 -108.5 1.062 C-99.521 0.882 -90.542 0.717 -81.562 0.562 C-80.872 0.551 -80.181 0.539 -79.469 0.527 C-52.979 0.076 -26.494 -0.025 0 0 Z " fill="#0D5DA9" transform="translate(258.5,585.9375)"/>
<path d="M0 0 C0.251 4.502 -0.277 7.274 -2.387 11.246 C-2.906 12.237 -3.426 13.227 -3.962 14.248 C-4.531 15.3 -5.101 16.353 -5.688 17.438 C-6.272 18.539 -6.856 19.641 -7.458 20.776 C-11.939 29.171 -16.594 37.465 -21.317 45.725 C-24.819 51.858 -28.18 58.047 -31.438 64.312 C-40.877 82.439 -40.877 82.439 -44 84 C-46.229 83.43 -48.436 82.771 -50.625 82.062 C-51.814 81.682 -53.002 81.302 -54.227 80.91 C-55.142 80.61 -56.057 80.309 -57 80 C-55.536 75.894 -53.524 72.548 -51.098 68.934 C-50.708 68.35 -50.318 67.767 -49.917 67.167 C-48.637 65.254 -47.35 63.346 -46.062 61.438 C-45.166 60.102 -44.27 58.766 -43.374 57.43 C-41.051 53.969 -38.721 50.513 -36.389 47.058 C-35.033 45.049 -33.679 43.04 -32.326 41.03 C-29.805 37.288 -27.278 33.55 -24.75 29.812 C-24.172 28.957 -24.172 28.957 -23.583 28.085 C-4.598 0 -4.598 0 0 0 Z " fill="#E09B20" transform="translate(706,247)"/>
<path d="M0 0 C0.66 0.33 1.32 0.66 2 1 C-2.62 5.62 -7.24 10.24 -12 15 C-12 10.399 -9.102 8.193 -6 5 C-4.053 3.242 -2.065 1.622 0 0 Z " fill="#0A4983" transform="translate(1058,704)"/>
<path d="M0 0 C0.66 0.33 1.32 0.66 2 1 C-2.29 5.29 -6.58 9.58 -11 14 C-11 10.302 -10.171 9.686 -7.75 7 C-7.147 6.319 -6.543 5.639 -5.922 4.938 C-4.062 3.063 -2.152 1.524 0 0 Z " fill="#0A4781" transform="translate(81,557)"/>
<path d="M0 0 C0.66 0.33 1.32 0.66 2 1 C-2.62 5.62 -7.24 10.24 -12 15 C-12 10.399 -9.102 8.193 -6 5 C-4.053 3.242 -2.065 1.622 0 0 Z " fill="#B07919" transform="translate(715,118)"/>
<path d="M0 0 C0.66 0.33 1.32 0.66 2 1 C-1.96 4.96 -5.92 8.92 -10 13 C-10.66 12.67 -11.32 12.34 -12 12 C-8.322 7.474 -4.589 3.606 0 0 Z " fill="#AF7819" transform="translate(336,159)"/>
<path d="M0 0 C0.66 0.33 1.32 0.66 2 1 C-1.63 4.63 -5.26 8.26 -9 12 C-9 7.841 -6.753 5.855 -4 3 C-1.688 1.125 -1.688 1.125 0 0 Z " fill="#AE7818" transform="translate(720,1080)"/>
<path d="M0 0 C0 1.98 0 3.96 0 6 C-0.66 5.01 -1.32 4.02 -2 3 C-4.31 5.31 -6.62 7.62 -9 10 C-9 5.69 -6.833 4.103 -4 1 C-2 0 -2 0 0 0 Z " fill="#9C6C16" transform="translate(706,247)"/>
</svg>